<svg width="21" height="22" viewBox="0 0 21 22" fill="none" xmlns="http://www.w3.org/2000/svg">
<mask id="mask0_18_803" style="mask-type:alpha" maskUnits="userSpaceOnUse" x="0" y="0" width="21" height="22">
<rect y="0.908752" width="20.1825" height="20.1825" fill="#D9D9D9"/>
</mask>
<g mask="url(#mask0_18_803)">
<path d="M9.6497 13.0813L6.6013 10.0329C6.55925 9.99087 6.52772 9.94532 6.50669 9.89627C6.48567 9.84721 6.47516 9.79465 6.47516 9.73859C6.47516 9.62647 6.5137 9.52836 6.59079 9.44426C6.66787 9.36017 6.76949 9.31812 6.89563 9.31812H13.2868C13.4129 9.31812 13.5145 9.36017 13.5916 9.44426C13.6687 9.52836 13.7072 9.62647 13.7072 9.73859C13.7072 9.76662 13.6652 9.86473 13.5811 10.0329L10.5327 13.0813C10.4626 13.1514 10.3925 13.2005 10.3224 13.2285C10.2524 13.2565 10.1753 13.2705 10.0912 13.2705C10.0071 13.2705 9.93001 13.2565 9.85993 13.2285C9.78985 13.2005 9.71978 13.1514 9.6497 13.0813Z" fill="#1C1B1F"/>
</g>
</svg>
